<?xml version="1.0" encoding="utf-8"?>
<!-- Generator: Adobe Illustrator 21.0.0, SVG Export Plug-In . SVG Version: 6.00 Build 0)  -->
<svg version="1.1" id="Layer_1" xmlns="http://www.w3.org/2000/svg" xmlns:xlink="http://www.w3.org/1999/xlink" x="0px" y="0px"
	 viewBox="0 0 303 267" style="enable-background:new 0 0 303 267;" xml:space="preserve">
<style type="text/css">
	.st0{fill:#FAFBFC;}
	.st1{fill:#00A8B0;}
</style>
<g>
	<circle id="Oval" class="st0" cx="94" cy="46.2" r="16.4"/>
	<circle id="Oval_1_" class="st0" cx="94" cy="84.5" r="16.4"/>
	<circle id="Oval_2_" class="st0" cx="94" cy="122.9" r="16.4"/>
	<circle id="Oval_3_" class="st0" cx="132.3" cy="46.2" r="16.4"/>
	<circle id="Oval_4_" class="st0" cx="132.3" cy="84.5" r="16.4"/>
	<circle id="Oval_5_" class="st0" cx="132.3" cy="161.2" r="16.4"/>
	<circle id="Oval_6_" class="st0" cx="170.6" cy="46.2" r="16.4"/>
	<circle id="Oval_7_" class="st0" cx="170.6" cy="84.5" r="16.4"/>
	<circle id="Oval_8_" class="st0" cx="170.6" cy="161.2" r="16.4"/>
	<circle id="Oval_9_" class="st0" cx="208.9" cy="122.9" r="16.4"/>
	<circle id="Oval_10_" class="st0" cx="208.9" cy="161.2" r="16.4"/>
</g>
<path id="Shape" class="st1" d="M213.5,68.8V62c6.9-2,11.9-8.3,11.9-15.8c0-9.1-7.4-16.4-16.4-16.4s-16.4,7.4-16.4,16.4
	c0,7.5,5,13.8,11.9,15.8v6.8c-6.9,2-11.9,8.3-11.9,15.8c0,2.9,0.8,5.6,2.1,8l-16,16c-2.4-1.3-5.1-2.1-8-2.1c-7.5,0-13.8,5-15.8,11.9
	h-6.8c-2-6.9-8.3-11.9-15.8-11.9c-9.1,0-16.4,7.4-16.4,16.4c0,2.9,0.8,5.6,2.1,8l-16,16c-2.4-1.3-5.1-2.1-8-2.1
	c-9.1,0-16.4,7.4-16.4,16.4s7.4,16.4,16.4,16.4s16.4-7.4,16.4-16.4c0-2.9-0.8-5.6-2.1-8l16-16c2.4,1.3,5.1,2.1,8,2.1
	c7.5,0,13.8-5,15.8-11.9h6.8c2,6.9,8.3,11.9,15.8,11.9c9.1,0,16.4-7.4,16.4-16.4c0-2.9-0.8-5.6-2.1-8l16-16c2.4,1.3,5.1,2.1,8,2.1
	c9.1,0,16.4-7.4,16.4-16.4C225.4,77,220.3,70.7,213.5,68.8z"/>
<g>
	<path class="st0" d="M80.1,210.5c0-5.6,3.3-6.8,7.6-6.8c2,0,8.1,0.7,9.6,0.9v2.3c-2.5-0.2-9.6-0.4-9.6-0.4c-2.7-0.1-4.7,0.2-4.7,4
		v2.5c0,3.5,1.6,3.8,3.9,3.8h5.4c5.1,0,6,3.4,6,6.6v2.6c0,5.4-3.9,6.3-7.7,6.3c-1.9,0-7.8-0.7-9.6-1V229c1.5,0.2,6,0.4,9.6,0.4
		c1.6,0,4.9-0.1,4.9-3.4v-2.6c0-2.2-0.7-3.8-3.1-3.8h-5.4c-6.1,0-6.8-3.4-6.8-6.6V210.5z"/>
	<path class="st0" d="M103,208.9c0-3.8,2.3-5.1,4.8-5l12.1,0.6v2.2h-12.1c-2,0-2,1.1-2,2.1v7.7l12.6,0.4v2.3l-12.6,0.4v7.7
		c0,2,1.3,2,2.4,2h11.7v2.2l-11.7,0.7c-2.5,0.2-5.2-0.5-5.2-4.8V208.9z"/>
	<path class="st0" d="M133.1,203.6c2,0,6.7,0.5,9.3,1v2.3c0,0-5.8-0.4-9.3-0.4c-4.8,0-6.5,2.2-6.5,11.5c0,6.3,1.4,11.4,6.5,11.4
		c4,0,9.3-0.3,9.3-0.3v2.3c-2.7,0.5-7.4,0.8-9.3,0.8c-7.1,0-9.3-6.1-9.3-14.3C123.7,208.9,125.5,203.6,133.1,203.6z"/>
	<path class="st0" d="M146.8,203.9h2.8v15.8c0,9.8,3.1,9.6,7.5,9.6c3.8,0,7.3-0.1,7.3-9.6v-15.8h2.9v15.8c0,12.4-5.6,12.4-10.2,12.4
		c-5.2,0-10.4,0.3-10.4-12.4V203.9z"/>
	<path class="st0" d="M172,203.9h11.9c3.6,0,6.5,2.1,6.5,8.4c0,7.3-3.8,7.9-4.9,8l5.9,11.6h-3.1l-5.9-11.5l-7.7-0.5v12H172V203.9z
		 M183.9,217.5c1.8,0,3.6,0,3.6-5.1c0-5-1.9-5.6-3.6-5.6h-9.1v10.6H183.9z"/>
	<path class="st0" d="M195.5,203.9h2.8v28h-2.8V203.9z"/>
	<path class="st0" d="M205.4,203.9l6.9,11.8l7-11.8h3.1l-8.3,13.8l8.1,14.2h-3.1l-6.9-11.8l-6.8,11.8h-3.1l8-14.2l-8.1-13.8H205.4z"
		/>
</g>
</svg>
