<svg class="logo" width="303px" height="267px" viewBox="0 0 303 267">
<g class="logo__circles logo__circles--white" id="Group" transform="translate(77.000000, 60.000000)">
<circle class="logo__circle" id="Oval" fill="#575756" cx="16.988" cy="17.215" r="16.422"></circle>
<circle class="logo__circle" id="Oval" fill="#575756" cx="16.988" cy="55.533" r="16.422"></circle>
<circle class="logo__circle" id="Oval" fill="#575756" cx="16.988" cy="93.852" r="16.422"></circle>
<circle class="logo__circle" id="Oval" fill="#575756" cx="55.306" cy="17.215" r="16.422"></circle>
<circle class="logo__circle" id="Oval" fill="#575756" cx="55.306" cy="55.533" r="16.422"></circle>
<circle class="logo__circle" id="Oval" fill="#575756" cx="55.306" cy="132.169" r="16.422"></circle>
<circle class="logo__circle" id="Oval" fill="#575756" cx="93.624" cy="17.215" r="16.422"></circle>
<circle class="logo__circle" id="Oval" fill="#575756" cx="93.624" cy="55.533" r="16.422"></circle>
<circle class="logo__circle" id="Oval" fill="#575756" cx="93.624" cy="132.169" r="16.422"></circle>
<circle class="logo__circle" id="Oval" fill="#575756" cx="131.942" cy="93.852" r="16.422"></circle>
<circle class="logo__circle" id="Oval" fill="#575756" cx="131.942" cy="132.169" r="16.422"></circle>
<path class="logo__connected" id="Shape" d="M136.46,39.755 L136.46,32.993 C143.329,31.029 148.364,24.716 148.364,17.215 C148.364,8.146 141.011,0.793 131.942,0.793 C122.873,0.793 115.519,8.146 115.519,17.215 C115.519,24.715 120.552,31.028 127.422,32.993 L127.422,39.757 C120.552,41.721 115.519,48.033 115.519,55.534 C115.519,58.426 116.272,61.139 117.584,63.499 L101.588,79.496 C99.229,78.184 96.514,77.431 93.622,77.431 C86.122,77.431 79.81,82.465 77.845,89.334 L71.082,89.334 C69.117,82.464 62.805,77.431 55.304,77.431 C46.235,77.431 38.882,84.784 38.882,93.853 C38.882,96.745 39.635,99.458 40.947,101.818 L24.951,117.814 C22.591,116.502 19.877,115.749 16.986,115.749 C7.916,115.749 0.564,123.102 0.564,132.171 C0.564,141.24 7.917,148.592 16.986,148.592 C26.055,148.592 33.408,141.239 33.408,132.171 C33.408,129.279 32.655,126.565 31.342,124.205 L47.339,108.209 C49.699,109.521 52.412,110.275 55.304,110.275 C62.804,110.275 69.117,105.241 71.082,98.372 L77.845,98.372 C79.81,105.241 86.122,110.275 93.622,110.275 C102.692,110.275 110.045,102.922 110.045,93.853 C110.045,90.96 109.291,88.247 107.979,85.886 L123.976,69.89 C126.334,71.203 129.048,71.956 131.942,71.956 C141.011,71.956 148.364,64.604 148.364,55.534 C148.364,48.032 143.329,41.719 136.46,39.755 Z" fill="#00A8B0"></path>
</g>
</svg>